<svg width="277" height="141" viewBox="0 0 277 141" fill="none" xmlns="http://www.w3.org/2000/svg">
<path d="M58.1972 100.166C59.5126 100.166 60.8152 99.9072 62.0305 99.4039C63.2458 98.9006 64.35 98.1628 65.2802 97.2327C66.2104 96.3027 66.9483 95.1985 67.4517 93.9832C67.9551 92.7679 68.2141 91.4654 68.2141 90.15C68.2141 71.5538 75.6015 53.7193 88.751 40.5698C101.9 27.4203 119.735 20.033 138.331 20.033C156.927 20.033 174.762 27.4203 187.911 40.5698C201.061 53.7193 208.448 71.5538 208.448 90.15C208.474 92.7892 209.541 95.3113 211.417 97.1683C213.292 99.0252 215.825 100.067 218.465 100.067C221.104 100.067 223.637 99.0252 225.512 97.1683C227.388 95.3113 228.455 92.7892 228.481 90.15C228.481 78.3113 226.149 66.5886 221.619 55.6511C217.088 44.7136 210.448 34.7755 202.077 26.4043C193.705 18.0331 183.767 11.3927 172.83 6.86226C161.892 2.33179 150.17 0 138.331 0C126.492 0 114.77 2.33179 103.832 6.86226C92.8948 11.3927 82.9566 18.0331 74.5854 26.4043C66.2142 34.7755 59.5739 44.7136 55.0434 55.6511C50.513 66.5886 48.1812 78.3113 48.1812 90.15C48.1812 92.8064 49.2364 95.354 51.1147 97.2324C52.9931 99.1107 55.5408 100.166 58.1972 100.166Z" fill="url(#paint0_linear_2_40)"/>
<path d="M266.545 120.199H178.365C184.894 111.543 188.42 100.993 188.409 90.15C188.409 76.867 183.132 64.1281 173.74 54.7356C164.347 45.3431 151.608 40.0665 138.325 40.0665C125.043 40.0665 112.304 45.3431 102.911 54.7356C93.5187 64.1281 88.2421 76.867 88.2421 90.15C88.2421 92.8067 89.2974 95.3545 91.176 97.2331C93.0546 99.1116 95.6024 100.167 98.2591 100.167C100.916 100.167 103.464 99.1116 105.342 97.2331C107.221 95.3545 108.276 92.8067 108.276 90.15C108.276 84.2066 110.038 78.3967 113.34 73.4549C116.642 68.513 121.335 64.6613 126.826 62.3867C132.317 60.1121 138.359 59.5169 144.188 60.6763C150.017 61.8357 155.372 64.6976 159.574 68.9001C163.777 73.1026 166.639 78.457 167.799 84.2862C168.958 90.1153 168.363 96.1574 166.089 101.648C163.814 107.139 159.963 111.833 155.021 115.135C150.079 118.437 144.269 120.199 138.326 120.199H10.1171C8.79329 120.186 7.47998 120.435 6.25312 120.933C5.02625 121.43 3.91018 122.166 2.96939 123.097C2.02861 124.029 1.28177 125.137 0.772095 126.359C0.262417 127.581 0 128.892 0 130.216C0 131.539 0.262417 132.85 0.772095 134.072C1.28177 135.294 2.02861 136.402 2.96939 137.334C3.91018 138.265 5.02625 139.001 6.25312 139.498C7.47998 139.996 8.79329 140.245 10.1171 140.232H266.545C269.184 140.206 271.706 139.139 273.563 137.263C275.42 135.388 276.462 132.855 276.462 130.216C276.462 127.576 275.42 125.043 273.563 123.168C271.706 121.292 269.184 120.225 266.545 120.199Z" fill="url(#paint1_linear_2_40)"/>
<defs>
<linearGradient id="paint0_linear_2_40" x1="48.1812" y1="50.083" x2="228.481" y2="50.083" gradientUnits="userSpaceOnUse">
<stop stop-color="#E5A71A"/>
<stop offset="0.243" stop-color="#DE1D5B"/>
<stop offset="0.495" stop-color="#E2254F"/>
<stop offset="0.751" stop-color="#EA313A"/>
<stop offset="1" stop-color="#F4431F"/>
</linearGradient>
<linearGradient id="paint1_linear_2_40" x1="0" y1="90.1495" x2="276.462" y2="90.1495" gradientUnits="userSpaceOnUse">
<stop stop-color="#E5A71A"/>
<stop offset="0.243" stop-color="#DE1D5B"/>
<stop offset="0.495" stop-color="#E2254F"/>
<stop offset="0.751" stop-color="#EA313A"/>
<stop offset="1" stop-color="#F4431F"/>
</linearGradient>
</defs>
</svg>
