<svg width="311" height="97" viewBox="0 0 311 97" fill="none" xmlns="http://www.w3.org/2000/svg">
<path d="M4.42188 68.2656C3.79688 68.2656 3.48438 67.8594 3.48438 67.0469L7.98438 9.25L8.21875 6.53125V6.20312C8.21875 3.92187 6.04688 2.78125 1.70312 2.78125C1.04688 2.78125 0.71875 2.51562 0.71875 1.98438C0.71875 1.45313 0.8125 1.14062 1 1.04688C1.1875 0.953125 1.48438 0.90625 1.89062 0.90625H24.2031C24.6406 0.90625 24.9062 1.03125 25 1.28125C25.0938 1.53125 25.1406 1.6875 25.1406 1.75C25.1406 2.4375 24.5625 2.78125 23.4062 2.78125C22.2812 2.78125 21.2344 2.95313 20.2656 3.29688C19.3281 3.64062 18.5625 4.09375 17.9688 4.65625C16.9688 5.65625 16.3594 7.35938 16.1406 9.76562C15.9531 12.1406 15.7188 14.9688 15.4375 18.25C15.1875 21.5 14.9375 24.8125 14.6875 28.1875C14.0938 36.3125 13.6562 41.875 13.375 44.875C13.125 47.8438 12.9844 49.7031 12.9531 50.4531C12.9219 51.2031 12.875 52.0781 12.8125 53.0781C12.7812 54.0469 12.9688 54.5312 13.375 54.5312C13.5625 54.5312 13.8125 54.375 14.125 54.0625C19.4375 46.9062 23.875 41 27.4375 36.3438C33.125 28.8438 38.75 21.3906 44.3125 13.9844C45.4375 12.4531 46 11.0781 46 9.85938C46 8.60938 45.7969 7.57812 45.3906 6.76562C44.9844 5.95312 44.4531 5.25 43.7969 4.65625C42.4219 3.40625 40.8906 2.78125 39.2031 2.78125C38.4844 2.78125 38.125 2.46875 38.125 1.84375C38.125 1.21875 38.3438 0.90625 38.7812 0.90625H62.4531C62.9531 0.90625 63.2031 1.21875 63.2031 1.84375C63.2031 2.46875 62.8594 2.78125 62.1719 2.78125H61.3281C57.0156 2.78125 54.625 4.03125 54.1562 6.53125C53.9688 12.3125 53.6094 20.6406 53.0781 31.5156C52.5781 42.3594 52.2656 49.7031 52.1406 53.5469C52.1406 53.9531 52.2344 54.1562 52.4219 54.1562C52.7656 54.1562 53.2188 53.7188 53.7812 52.8438L55.2344 50.7812C57.8594 47.0312 60.5469 43.2969 63.2969 39.5781C66.0469 35.8594 68.1562 32.9219 69.625 30.7656C71.0938 28.5781 72.1406 27.0625 72.7656 26.2188C73.3906 25.3438 74.0625 24.4062 74.7812 23.4062C75.5 22.4062 76.2344 21.3906 76.9844 20.3594C77.7344 19.2969 78.4375 18.3281 79.0938 17.4531C79.75 16.5469 80.3125 15.7656 80.7812 15.1094C81.2812 14.4219 81.625 13.9688 81.8125 13.75C82 13.5 82.2031 13.2031 82.4219 12.8594C82.6719 12.4844 82.9375 12.1094 83.2188 11.7344C83.8125 10.8594 84.3281 10.1094 84.7656 9.48438C85.2031 8.82812 85.4219 8 85.4219 7C85.4219 6 84.9531 5.04688 84.0156 4.14062C83.1094 3.23438 81.9531 2.78125 80.5469 2.78125C79.1719 2.78125 78.4844 2.46875 78.4844 1.84375C78.4844 1.21875 78.7969 0.90625 79.4219 0.90625H96.6719C97.4531 0.90625 97.8438 1.21875 97.8438 1.84375C97.8438 2.46875 97.4688 2.78125 96.7188 2.78125C94.5625 2.78125 93.1562 3.20312 92.5 4.04688C86.9688 11.6719 80.8125 20.2344 74.0312 29.7344C62.5625 45.8594 53.6406 58.3281 47.2656 67.1406C46.7031 67.8906 46.0469 68.2656 45.2969 68.2656H44.2188C43.5938 68.2656 43.2812 67.8594 43.2812 67.0469L43.3281 65.9688C43.6094 60.0938 43.8594 54.2812 44.0781 48.5312C44.2969 42.7812 44.4844 38.0625 44.6406 34.375C44.7969 30.6875 44.9375 28.1094 45.0625 26.6406C45.1875 25.1406 45.25 23.9375 45.25 23.0312V21.25C45.25 19.9062 45.0781 19.2344 44.7344 19.2344C44.3906 19.2344 44.0625 19.4375 43.75 19.8438C43.4688 20.2188 42.5469 21.4062 40.9844 23.4062C39.4531 25.375 37.2812 28.2188 34.4688 31.9375C31.6875 35.6562 28.8906 39.3906 26.0781 43.1406C23.2969 46.8906 20.5 50.6406 17.6875 54.3906C14.9062 58.1406 12.1094 61.8438 9.29688 65.5L7.9375 67.3281C7.46875 67.9531 6.67188 68.2656 5.54688 68.2656H4.42188ZM101.031 59.9219C101.156 59.3281 101.281 58.7812 101.406 58.2812C101.531 57.75 101.609 57.2188 101.641 56.6875C101.672 56.1562 101.562 55.8906 101.312 55.8906C100.969 55.8906 100.203 56.4219 99.0156 57.4844C97.8281 58.5156 96.7344 59.4688 95.7344 60.3438C94.7344 61.2188 93.6719 62.125 92.5469 63.0625C91.4531 64 90.375 64.8438 89.3125 65.5938C86.9062 67.375 85.1406 68.2656 84.0156 68.2656C82.8906 68.2656 81.9688 67.7969 81.25 66.8594C80.5625 65.9219 80.0312 64.8125 79.6562 63.5312C79.0312 61.3438 78.7188 59.2344 78.7188 57.2031C78.7188 50.7031 81.1875 44.4688 86.125 38.5C90.8438 32.875 96.6406 28.8906 103.516 26.5469C106.922 25.3906 110.391 24.8125 113.922 24.8125C114.453 24.8125 114.719 25.25 114.719 26.125L107.641 58.5625C107.609 58.8125 107.578 59.0625 107.547 59.3125C107.484 59.75 107.453 60.1719 107.453 60.5781C107.453 60.9531 107.578 61.3281 107.828 61.7031C108.078 62.0781 108.344 62.2656 108.625 62.2656C108.938 62.2656 109.312 62.0938 109.75 61.75C110.219 61.375 110.688 60.9688 111.156 60.5312C112.469 59.4062 113.281 58.8438 113.594 58.8438C114.094 58.8438 114.344 59.125 114.344 59.6875C114.344 60.2812 112.656 61.875 109.281 64.4688C105.875 67.125 103.734 68.4531 102.859 68.4531C101.891 68.4531 101.219 67.8125 100.844 66.5312C100.656 65.8438 100.562 65.0781 100.562 64.2344C100.562 63.3594 100.609 62.5625 100.703 61.8438C100.797 61.125 100.906 60.4844 101.031 59.9219ZM107.172 30.9062C107.172 30.4062 106.578 30.1562 105.391 30.1562C104.203 30.1562 102.812 30.375 101.219 30.8125C99.625 31.2188 98.0938 31.8125 96.625 32.5938C91.2188 35.4375 87.75 40.25 86.2188 47.0312C85.5625 49.9688 85.1875 52.3281 85.0938 54.1094C85.0312 55.8906 85.0312 57.2031 85.0938 58.0469C85.1562 58.8906 85.3125 59.6875 85.5625 60.4375C86.1875 62.1875 87.3438 63.0625 89.0312 63.0625C91.2812 61.9062 93.7031 60.1562 96.2969 57.8125C98.9219 55.4688 101 53.6094 102.531 52.2344L107.172 30.9062ZM120.953 67.0938C120.297 66.7188 119.734 66.25 119.266 65.6875C118.828 65.125 118.578 64.4219 118.516 63.5781C118.484 62.7344 118.797 62.0156 119.453 61.4219C120.141 60.7969 120.891 60.4844 121.703 60.4844C122.516 60.4844 123.438 60.7344 124.469 61.2344C125.5 61.7031 126.578 62.2344 127.703 62.8281C130.672 64.3906 132.875 65.1719 134.312 65.1719C135.75 65.1719 136.953 64.6094 137.922 63.4844C138.922 62.3594 139.422 61.0312 139.422 59.5C139.422 57.9375 139.125 56.5469 138.531 55.3281C137.938 54.1094 137.188 52.9531 136.281 51.8594C135.406 50.7344 134.453 49.6562 133.422 48.625C132.391 47.5625 131.438 46.4688 130.562 45.3438C128.469 42.7188 127.422 40.3594 127.422 38.2656C127.422 36.1406 127.953 34.3125 129.016 32.7812C130.078 31.25 131.422 29.9062 133.047 28.75C136.516 26.2812 140.062 25.0469 143.688 25.0469C145.031 25.0469 146.062 25.4688 146.781 26.3125C148.094 27.8438 148.75 29.25 148.75 30.5312C148.75 33.3438 147.719 34.75 145.656 34.75C144.781 34.75 144.094 34.3438 143.594 33.5312C143.094 32.7188 142.719 32.0312 142.469 31.4688C142.219 30.875 141.938 30.3438 141.625 29.875C140.938 28.7188 140.156 28.1406 139.281 28.1406C138.438 28.1406 137.594 28.3594 136.75 28.7969C135.906 29.2031 135.156 29.7344 134.5 30.3906C132.969 31.8594 132.203 33.2812 132.203 34.6562C132.203 36.0312 132.484 37.2188 133.047 38.2188C133.641 39.2188 134.359 40.2031 135.203 41.1719C136.078 42.1406 137.016 43.1406 138.016 44.1719C139.016 45.1719 139.938 46.25 140.781 47.4062C142.812 50.125 143.828 52.9219 143.828 55.7969C143.828 59.7031 142.016 62.8438 138.391 65.2188C137.297 65.9375 136.328 66.4375 135.484 66.7188C134.672 66.9688 134.047 67.1719 133.609 67.3281C133.203 67.4844 132.688 67.625 132.062 67.75C130.562 68.0938 128.938 68.2656 127.188 68.2656C125.438 68.2656 124.125 68.1562 123.25 67.9375C122.406 67.75 121.641 67.4688 120.953 67.0938ZM169.938 64.4688C172.906 64.4688 176.531 63.1562 180.812 60.5312L181.469 61.7031C178.188 64.2344 174.469 66.1406 170.312 67.4219C168.5 67.9844 166.641 68.2656 164.734 68.2656C162.859 68.2656 161.266 67.8594 159.953 67.0469C158.641 66.2656 157.562 65.2031 156.719 63.8594C155.156 61.2969 154.375 57.9844 154.375 53.9219C155 46.9844 157.5 40.5625 161.875 34.6562C164.844 30.6562 168.406 27.8125 172.562 26.125C174.688 25.25 176.594 24.8125 178.281 24.8125C180 24.8125 181.328 24.9688 182.266 25.2812C183.203 25.5625 184.031 26 184.75 26.5938C186.344 27.875 187.141 29.5 187.141 31.4688C187.141 33.4062 186.719 35.0781 185.875 36.4844C185.062 37.8906 183.984 39.1094 182.641 40.1406C181.297 41.1719 179.766 42.0625 178.047 42.8125C176.328 43.5625 174.578 44.2188 172.797 44.7812C171.047 45.3438 169.312 45.8594 167.594 46.3281C165.906 46.7656 164.422 47.2188 163.141 47.6875C162.141 50.0312 161.641 52.4219 161.641 54.8594C161.641 59.2344 163.125 62.1719 166.094 63.6719C167.156 64.2031 168.438 64.4688 169.938 64.4688ZM163.797 44.875C163.797 45.4062 164.219 45.6719 165.062 45.6719C169.781 44.2969 173.156 42.9062 175.188 41.5C177.219 40.0625 178.75 38.5625 179.781 37C180.844 35.4375 181.375 33.5625 181.375 31.375C181.375 29.1562 180.688 27.7031 179.312 27.0156C178.844 26.7656 178.094 26.6406 177.062 26.6406C176.062 26.6406 174.984 26.9531 173.828 27.5781C172.672 28.1719 171.625 28.9844 170.688 30.0156C169.75 31.0156 168.906 32.1562 168.156 33.4375C167.406 34.7188 166.75 36.0312 166.188 37.375C165.25 39.625 164.453 42.125 163.797 44.875ZM206.594 24.8125C207.719 24.8125 208.281 25.8594 208.281 27.9531C208.281 28.8906 208.219 29.6094 208.094 30.1094C208 30.6094 207.859 31.2812 207.672 32.125C207.516 32.9688 207.266 34.2344 206.922 35.9219C206.578 37.5781 206.094 39.9531 205.469 43.0469C205.469 43.3906 205.594 43.5625 205.844 43.5625C206.125 43.5625 206.375 43.4375 206.594 43.1875C206.844 42.9062 207.219 42.4844 207.719 41.9219C208.219 41.3594 208.984 40.4844 210.016 39.2969C211.078 38.0781 212.203 36.8281 213.391 35.5469C214.609 34.2344 215.859 32.9375 217.141 31.6562C218.453 30.375 219.75 29.2188 221.031 28.1875C223.938 25.9375 226.344 24.8125 228.25 24.8125C229.188 24.8125 230 25.1875 230.688 25.9375C231.406 26.6562 231.766 27.4219 231.766 28.2344C231.766 29.0469 231.719 29.6562 231.625 30.0625L223.281 62.5V62.6875C223.281 63.375 223.672 63.7188 224.453 63.7188C225.703 63.7188 227.906 62.0625 231.062 58.75C231.406 58.4062 231.656 58.1562 231.812 58L232.703 58.8906C232.078 60.1094 230.312 61.9062 227.406 64.2812C224.062 66.9688 221.547 68.3125 219.859 68.3125C218.922 68.3125 218.094 67.9375 217.375 67.1875C216.688 66.4688 216.344 65.7188 216.344 64.9375C216.344 64.125 216.391 63.5 216.484 63.0625L224.828 30.625V30.4375C224.828 30.1562 224.688 29.9219 224.406 29.7344C224.156 29.5156 223.812 29.4219 223.375 29.4531C222.969 29.4531 222.266 29.8281 221.266 30.5781C220.297 31.2969 219.219 32.2344 218.031 33.3906C216.844 34.5469 215.594 35.8281 214.281 37.2344C213 38.6406 211.766 40.0312 210.578 41.4062C207.328 45.1562 205.422 47.4531 204.859 48.2969C204.328 49.1094 203.969 49.9688 203.781 50.875L200.406 66.4844C198.25 67.7344 196.594 68.3594 195.438 68.3594C194.281 68.3594 193.703 67.9062 193.703 67C193.703 66.5938 193.781 66.0625 193.938 65.4062C194.219 64.1562 194.391 63.3594 194.453 63.0156L200.734 33.2969V33.1094C200.734 32.2344 200.375 31.7969 199.656 31.7969C199.188 31.7969 198.406 32.3594 197.312 33.4844C196.219 34.5781 194.781 36.0312 193 37.8438L191.875 36.6719C192.562 35.2656 195.062 32.75 199.375 29.125C202.812 26.25 205.219 24.8125 206.594 24.8125ZM275.547 28.5156C275.547 28.9844 275.266 29.2188 274.703 29.2188H269.172C269.297 29.75 269.453 30.3438 269.641 31C269.859 31.625 270.062 32.3438 270.25 33.1562C270.688 35 270.906 36.9844 270.906 39.1094C270.906 41.2031 270.578 43.1719 269.922 45.0156C269.297 46.8594 268.453 48.5625 267.391 50.125C265.641 52.6875 262.984 55.4219 259.422 58.3281C258.203 59.3281 256.375 60.3594 253.938 61.4219C251.531 62.4844 249.922 63.2656 249.109 63.7656C248.297 64.2656 247.891 64.9688 247.891 65.875C247.891 66.75 248.359 67.7344 249.297 68.8281C250.234 69.9219 251.406 71 252.812 72.0625C254.25 73.125 255.781 74.2031 257.406 75.2969C259.062 76.3906 260.594 77.5312 262 78.7188C265.312 81.4688 266.969 84.1406 266.969 86.7344C266.969 91.2656 263.094 94.375 255.344 96.0625C252.562 96.6875 249.734 97 246.859 97C243.984 97 241.266 96.8906 238.703 96.6719C236.141 96.4531 233.906 96.0312 232 95.4062C227.781 94.0938 225.672 91.7812 225.672 88.4688C225.672 85.9062 227.641 83.2656 231.578 80.5469C233.703 79.0781 235.656 77.8594 237.438 76.8906C239.219 75.9219 240.406 75.25 241 74.875C242.75 73.8125 243.766 73.1406 244.047 72.8594C243.891 72.2656 243.688 71.6562 243.438 71.0312C243.188 70.4375 243.062 69.8125 243.062 69.1562C243.062 68.5 243.172 67.9219 243.391 67.4219C243.609 66.9219 243.891 66.4531 244.234 66.0156C244.609 65.5781 245.031 65.125 245.5 64.6562C246.656 63.5625 247.234 62.9219 247.234 62.7344C247.234 62.5469 247.062 62.2812 246.719 61.9375C246.406 61.5625 246.031 61.1562 245.594 60.7188C244.656 59.9062 243.875 59.1719 243.25 58.5156C242.656 57.8281 242.109 57.0156 241.609 56.0781C241.141 55.1406 240.75 54.1406 240.438 53.0781C239.875 51.0156 239.594 49 239.594 47.0312C239.594 45.0312 239.938 43.1562 240.625 41.4062C241.312 39.6562 242.25 37.9688 243.438 36.3438C244.625 34.7188 245.984 33.2031 247.516 31.7969C249.078 30.3906 250.734 29.1719 252.484 28.1406C256.234 25.9219 259.812 24.8125 263.219 24.8125C270.094 24.8125 274.109 25.1562 275.266 25.8438C275.453 25.9375 275.547 26.1094 275.547 26.3594V28.5156ZM234.438 81.625C233.562 82.5 232.859 83.4062 232.328 84.3438C231.766 85.3125 231.484 86.4844 231.484 87.8594C231.484 89.2344 231.875 90.4531 232.656 91.5156C233.406 92.6094 234.5 93.4688 235.938 94.0938C238.375 95.125 242.328 95.6406 247.797 95.6406C252.328 95.6406 256.094 94.7344 259.094 92.9219C261.062 91.7344 262.047 90.2344 262.047 88.4219C262.047 86.3594 260 83.9375 255.906 81.1562C254.781 80.375 253.625 79.5938 252.438 78.8125L245.5 74.125C245 74.5 244.297 74.9375 243.391 75.4375C242.516 75.9375 241.562 76.5 240.531 77.125C239.5 77.7812 238.438 78.4844 237.344 79.2344C236.281 79.9844 235.312 80.7812 234.438 81.625ZM264.812 36.8125C264.812 30.3438 262.703 27.1094 258.484 27.1094C256.172 27.1094 254 28.375 251.969 30.9062C249.312 34.3438 247.531 38.9688 246.625 44.7812C246.344 46.5 246.203 48 246.203 49.2812C246.203 50.5312 246.297 51.75 246.484 52.9375C246.703 54.0938 247.062 55.1562 247.562 56.125C248.719 58.4375 250.438 59.5938 252.719 59.5938C254.188 59.5938 255.719 58.7812 257.312 57.1562C258.938 55.5 260.172 53.9062 261.016 52.375C261.891 50.8438 262.609 49.2344 263.172 47.5469C264.266 44.2656 264.812 40.6875 264.812 36.8125ZM292.844 64.4688C295.812 64.4688 299.438 63.1562 303.719 60.5312L304.375 61.7031C301.094 64.2344 297.375 66.1406 293.219 67.4219C291.406 67.9844 289.547 68.2656 287.641 68.2656C285.766 68.2656 284.172 67.8594 282.859 67.0469C281.547 66.2656 280.469 65.2031 279.625 63.8594C278.062 61.2969 277.281 57.9844 277.281 53.9219C277.906 46.9844 280.406 40.5625 284.781 34.6562C287.75 30.6562 291.312 27.8125 295.469 26.125C297.594 25.25 299.5 24.8125 301.188 24.8125C302.906 24.8125 304.234 24.9688 305.172 25.2812C306.109 25.5625 306.938 26 307.656 26.5938C309.25 27.875 310.047 29.5 310.047 31.4688C310.047 33.4062 309.625 35.0781 308.781 36.4844C307.969 37.8906 306.891 39.1094 305.547 40.1406C304.203 41.1719 302.672 42.0625 300.953 42.8125C299.234 43.5625 297.484 44.2188 295.703 44.7812C293.953 45.3438 292.219 45.8594 290.5 46.3281C288.812 46.7656 287.328 47.2188 286.047 47.6875C285.047 50.0312 284.547 52.4219 284.547 54.8594C284.547 59.2344 286.031 62.1719 289 63.6719C290.062 64.2031 291.344 64.4688 292.844 64.4688ZM286.703 44.875C286.703 45.4062 287.125 45.6719 287.969 45.6719C292.688 44.2969 296.062 42.9062 298.094 41.5C300.125 40.0625 301.656 38.5625 302.688 37C303.75 35.4375 304.281 33.5625 304.281 31.375C304.281 29.1562 303.594 27.7031 302.219 27.0156C301.75 26.7656 301 26.6406 299.969 26.6406C298.969 26.6406 297.891 26.9531 296.734 27.5781C295.578 28.1719 294.531 28.9844 293.594 30.0156C292.656 31.0156 291.812 32.1562 291.062 33.4375C290.312 34.7188 289.656 36.0312 289.094 37.375C288.156 39.625 287.359 42.125 286.703 44.875Z" fill="black"/>
</svg>
